<svg height="512pt" viewBox="-9 0 512 512.03071" width="512pt" xmlns="http://www.w3.org/2000/svg"><path d="m52.980469 289.046875c-4.246094 1.53125-8.726563 2.308594-13.242188 2.292969-21.9375 0-39.722656-17.785156-39.722656-39.722656s17.785156-39.722657 39.722656-39.722657c4.515625-.015625 8.996094.761719 13.242188 2.292969" fill="#46b29d"/><path d="m494.359375 406.101562c-9.164063 18.183594-21.785156 34.40625-37.164063 47.753907-44.050781 38.84375-111.226562 58.175781-187.9375 58.175781-86.160156 0-161.457031-29.835938-202.066406-74.328125-8.71875-9.417969-16.007812-20.066406-21.625-31.601563-6.667968-13.765624-10.167968-28.847656-10.242187-44.140624v-172.402344c0-101.957032 80.597656-187.9375 182.554687-189.527344 14.789063-.273438 29.550782 1.269531 43.960938 4.589844 84.378906 19.21875 144.242187 94.25 144.246094 180.789062v143.890625c-.230469 17.167969 4.0625 34.09375 12.445312 49.082031 11.652344 20.035157 36.457031 36.808594 75.828125 27.71875zm0 0" fill="#7ed09e"/><path d="m457.195312 453.855469c-44.050781 38.84375-111.226562 58.175781-187.9375 58.175781-86.160156 0-161.457031-29.835938-202.066406-74.328125v-258.296875c-.777344-88.535156 70.363282-160.9375 158.898438-161.71875 10.769531-.015625 21.511718 1.109375 32.042968 3.351562 30.53125 6.398438 58.484376 21.695313 80.332032 43.960938 29.902344 30.566406 46.609375 71.648438 46.523437 114.40625v197.652344s0 54.996094 72.207031 76.796875zm0 0" fill="#bbd1b5"/><path d="m326.636719 223.527344c15.511719-15.511719 40.664062-15.511719 56.175781 0 15.515625 15.511718 15.515625 40.664062 0 56.179687-15.511719 15.511719-40.664062 15.511719-56.175781 0" fill="#46b29d"/><path d="m317.808594 236.007812c3.011718-2.097656 6.339844-3.695312 9.859375-4.730468 7.886719-2.304688 16.269531-2.304688 24.152343 0 3.523438 1.035156 6.859376 2.632812 9.871094 4.730468 2.683594 1.867188 4.945313 4.273438 6.644532 7.0625 3.25 5.265626 3.25 11.914063 0 17.179688-1.699219 2.792969-3.960938 5.195312-6.644532 7.0625-3.011718 2.101562-6.347656 3.699219-9.871094 4.730469-7.882812 2.308593-16.265624 2.308593-24.152343 0-3.523438-1.0625-6.855469-2.691407-9.859375-4.820313" fill="#bbd1b5"/><g fill="#2c3e50"><path d="m137.019531 141.535156c1.40625-.175781 2.820313-.261718 4.238281-.261718 19.5 0 35.308594 15.808593 35.308594 35.308593s-15.808594 35.3125-35.308594 35.3125c-19.503906 0-35.3125-15.8125-35.3125-35.3125 0-1.417969.089844-2.832031.265626-4.238281"/><path d="m251.777344 141.535156c1.40625-.175781 2.820312-.261718 4.238281-.261718 19.5 0 35.308594 15.808593 35.308594 35.308593s-15.808594 35.3125-35.308594 35.3125-35.3125-15.8125-35.3125-35.3125c.003906-1.417969.089844-2.832031.265625-4.238281"/><path d="m282.5 273.6875v17.652344c.007812 15.394531-4.472656 30.457031-12.890625 43.34375-9.921875-22.28125-36.027344-32.296875-58.304687-22.378906-22.28125 9.921874-32.300782 36.027343-22.378907 58.308593-41.730469-2.789062-74.152343-37.449219-74.152343-79.273437v-17.652344c0-4.878906 3.953124-8.828125 8.828124-8.828125h150.070313c4.875 0 8.828125 3.949219 8.828125 8.828125zm0 0"/></g><path d="m269.609375 334.683594c-14.636719 22.535156-39.6875 36.128906-66.558594 36.105468h-8.828125c-1.765625 0-3.53125-.089843-5.296875-.175781-9.921875-22.28125.097657-48.386719 22.378907-58.308593 22.277343-9.917969 48.382812.097656 58.304687 22.378906zm0 0" fill="#ff5364"/><path d="m141.257812 154.511719c0 12.191406-9.882812 22.070312-22.070312 22.070312s-22.070312-9.878906-22.070312-22.070312c0-12.1875 9.882812-22.066407 22.070312-22.066407s22.070312 9.878907 22.070312 22.066407zm0 0" fill="#fff"/><path d="m256.015625 154.511719c0 12.191406-9.882813 22.070312-22.070313 22.070312s-22.066406-9.878906-22.066406-22.070312c0-12.1875 9.878906-22.066407 22.066406-22.066407s22.070313 9.878907 22.070313 22.066407zm0 0" fill="#fff"/></svg>